<?xml version="1.0" standalone="no"?>
<!DOCTYPE svg PUBLIC "-//W3C//DTD SVG 20010904//EN"
 "http://www.w3.org/TR/2001/REC-SVG-20010904/DTD/svg10.dtd">
<svg version="1.0" xmlns="http://www.w3.org/2000/svg"
 width="200.000000pt" height="200.000000pt" viewBox="0 0 200.000000 200.000000"
 preserveAspectRatio="xMidYMid meet">
<metadata>
Created by potrace 1.16, written by Peter Selinger 2001-2019
</metadata>
<g transform="translate(0.000000,200.000000) scale(0.100000,-0.100000)"
fill="#000000" stroke="none">
<path d="M495 1961 c-28 -12 -72 -61 -84 -94 -6 -16 -11 -102 -11 -196 0 -145
-2 -171 -17 -182 -32 -27 -43 -75 -43 -192 0 -74 -4 -117 -12 -125 -8 -8 -50
-12 -124 -12 -106 0 -114 -1 -143 -26 l-31 -26 0 -279 0 -280 25 -24 c18 -19
35 -25 70 -25 31 0 45 -4 45 -13 0 -8 -16 -92 -35 -188 -19 -95 -34 -178 -32
-183 2 -5 68 63 148 152 l144 160 5 -146 c5 -156 9 -169 60 -217 l31 -30 509
0 509 0 32 30 c58 55 59 63 59 425 0 181 3 330 6 330 3 0 78 -68 167 -151 89
-83 163 -147 164 -142 2 4 -31 123 -72 263 -41 140 -75 260 -75 266 0 6 34 48
76 94 87 94 104 128 104 202 -1 127 -99 219 -232 218 -18 -1 -57 -9 -85 -19
l-53 -18 0 154 c0 170 -7 198 -59 248 l-32 30 -497 2 c-273 1 -506 -2 -517 -6z
m987 -72 c27 -14 48 -69 48 -124 l0 -45 -65 0 -65 0 0 -35 0 -35 65 0 65 0 0
-99 c0 -137 -10 -144 -93 -64 -53 52 -71 63 -121 74 -110 24 -212 -17 -263
-107 -31 -54 -31 -145 0 -202 12 -23 106 -130 208 -239 102 -109 197 -212 211
-228 22 -25 28 -28 42 -16 15 12 16 -5 16 -203 l0 -216 -530 0 -530 0 0 75 0
75 35 0 c33 0 35 2 35 35 l0 35 -59 0 -59 0 -98 -110 c-54 -60 -100 -108 -101
-106 -2 2 6 47 17 101 11 53 20 101 20 106 0 4 -35 9 -77 11 l-78 3 0 255 0
255 128 5 c126 5 129 6 153 33 23 26 24 36 24 152 0 118 1 125 26 154 34 41
89 43 125 5 23 -24 24 -32 27 -184 l3 -158 87 -4 c68 -4 98 -10 138 -31 92
-47 144 -131 144 -232 0 -75 -24 -130 -80 -183 -52 -52 -113 -72 -212 -72
l-78 0 0 -35 0 -35 98 0 c86 0 104 3 157 29 101 48 165 132 185 244 36 191
-106 369 -306 385 l-64 5 0 126 c0 112 -3 130 -23 165 -27 48 -74 78 -127 80
l-40 1 0 58 0 57 440 0 440 0 0 35 0 35 -440 0 -440 0 0 45 c0 54 21 109 47
124 25 15 937 15 965 0z m-147 -412 c11 -6 53 -42 93 -81 l73 -70 72 71 c87
85 106 96 173 96 85 0 143 -49 151 -128 7 -55 -5 -75 -109 -188 l-87 -94 49
-164 c27 -90 48 -165 47 -166 -1 -1 -51 44 -111 100 l-109 101 -38 -43 -37
-44 -79 84 c-241 256 -296 317 -310 343 -29 55 -3 142 52 177 45 28 122 31
170 6z m195 -1242 c0 -55 -21 -110 -48 -124 -29 -15 -935 -15 -964 0 -27 14
-48 69 -48 124 l0 45 530 0 530 0 0 -45z"/>
<path d="M280 1000 l0 -40 160 0 160 0 0 40 0 40 -160 0 -160 0 0 -40z"/>
<path d="M1685 1270 l-90 -90 28 -27 27 -28 85 85 c47 47 85 89 85 96 0 6 -10
20 -23 32 l-23 22 -89 -90z"/>
<path d="M810 185 l0 -35 190 0 190 0 0 35 0 35 -190 0 -190 0 0 -35z"/>
</g>
</svg>
